<svg width="256" height="64" viewBox="0 0 256 64" xmlns="http://www.w3.org/2000/svg">
  <g>
    <rect x="0" y="0" width="64" height="64" fill="#fff"/>
    <!-- 熊1 -->
    <ellipse cx="32" cy="38" rx="22" ry="18" fill="#b71c1c"/>
    <ellipse cx="24" cy="24" rx="6" ry="8" fill="#b71c1c"/>
    <ellipse cx="40" cy="24" rx="6" ry="8" fill="#b71c1c"/>
    <ellipse cx="32" cy="46" rx="11" ry="6" fill="#fff"/>
    <ellipse cx="26" cy="46" rx="2" ry="3" fill="#444"/>
    <ellipse cx="38" cy="46" rx="2" ry="3" fill="#444"/>
    <ellipse cx="32" cy="55" rx="7" ry="2.5" fill="#d32f2f"/>
    <ellipse cx="23" cy="15" rx="3" ry="3" fill="#b71c1c"/>
    <ellipse cx="41" cy="15" rx="3" ry="3" fill="#b71c1c"/>
  </g>
  <g transform="translate(64)">
    <rect x="0" y="0" width="64" height="64" fill="#fff"/>
    <!-- 熊2(表情) -->
    <ellipse cx="32" cy="38" rx="22" ry="18" fill="#b71c1c"/>
    <ellipse cx="24" cy="24" rx="6" ry="8" fill="#b71c1c"/>
    <ellipse cx="40" cy="24" rx="6" ry="8" fill="#b71c1c"/>
    <ellipse cx="32" cy="46" rx="11" ry="6" fill="#fff"/>
    <ellipse cx="26" cy="44" rx="2" ry="2.8" fill="#222"/>
    <ellipse cx="38" cy="47" rx="2" ry="2.8" fill="#222"/>
    <ellipse cx="32" cy="55" rx="8" ry="3" fill="#c62828"/>
    <ellipse cx="23" cy="15" rx="3" ry="3" fill="#b71c1c"/>
    <ellipse cx="41" cy="15" rx="3" ry="3" fill="#b71c1c"/>
  </g>
  <g transform="translate(128)">
    <rect x="0" y="0" width="64" height="64" fill="#fff"/>
    <!-- 熊3（張嘴） -->
    <ellipse cx="32" cy="38" rx="22" ry="18" fill="#b71c1c"/>
    <ellipse cx="24" cy="24" rx="6" ry="8" fill="#b71c1c"/>
    <ellipse cx="40" cy="24" rx="6" ry="8" fill="#b71c1c"/>
    <ellipse cx="32" cy="46" rx="11" ry="6" fill="#fff"/>
    <ellipse cx="26" cy="47" rx="2" ry="2.3" fill="#111"/>
    <ellipse cx="38" cy="47" rx="2" ry="2.3" fill="#111"/>
    <ellipse cx="32" cy="56" rx="9" ry="4" fill="#d32f2f"/>
    <ellipse cx="23" cy="15" rx="3" ry="3" fill="#b71c1c"/>
    <ellipse cx="41" cy="15" rx="3" ry="3" fill="#b71c1c"/>
  </g>
  <g transform="translate(192)">
    <rect x="0" y="0" width="64" height="64" fill="#fff"/>
    <!-- 熊4（轉頭） -->
    <ellipse cx="32" cy="38" rx="22" ry="18" fill="#b71c1c"/>
    <ellipse cx="24" cy="24" rx="6" ry="8" fill="#b71c1c"/>
    <ellipse cx="40" cy="22" rx="7" ry="8" fill="#b71c1c"/>
    <ellipse cx="32" cy="46" rx="11" ry="6" fill="#fff"/>
    <ellipse cx="29" cy="46" rx="2" ry="3" fill="#222"/>
    <ellipse cx="38" cy="48" rx="2" ry="3" fill="#222"/>
    <ellipse cx="32" cy="55" rx="6" ry="3" fill="#d32f2f"/>
    <ellipse cx="23" cy="15" rx="3" ry="3" fill="#b71c1c"/>
    <ellipse cx="41" cy="15" rx="3" ry="3" fill="#b71c1c"/>
  </g>
</svg>
